<?xml version="1.0" encoding="utf-8"?>
<!-- Generator: Adobe Illustrator 28.2.0, SVG Export Plug-In . SVG Version: 6.00 Build 0)  -->
<svg version="1.1" id="Layer_1" xmlns="http://www.w3.org/2000/svg" xmlns:xlink="http://www.w3.org/1999/xlink" x="0px" y="0px"
	 viewBox="0 0 139.7 149" style="enable-background:new 0 0 139.7 149;" xml:space="preserve">
<style type="text/css">
	.st0{fill:url(#SVGID_1_);}
</style>
<g>
	<g>
		
			<linearGradient id="SVGID_1_" gradientUnits="userSpaceOnUse" x1="104.952" y1="147.3863" x2="24.0997" y2="7.3462" gradientTransform="matrix(1 0 0 -1 0 150)">
			<stop  offset="0" style="stop-color:#326BC6"/>
			<stop  offset="0.3" style="stop-color:#7EC4FC"/>
			<stop  offset="0.7" style="stop-color:#D2C7F3"/>
			<stop  offset="1" style="stop-color:#FAA2BE"/>
		</linearGradient>
		<path class="st0" d="M135.9,32c-5,0.5-10.1,2.9-14.2,7c-4.1,4.1-6.5,9.2-7,14.2c-0.1,0.5-0.5,0.9-1,0.9l0,0c-0.5,0-1-0.4-1-0.9
			c-0.5-5-2.9-10.1-7-14.2s-9.2-6.5-14.2-7c-0.5-0.1-0.9-0.5-0.9-1l0,0c0-0.5,0.4-1,0.9-1c5-0.5,10.1-2.9,14.2-7s6.5-9.2,7-14.2
			c0.1-0.5,0.5-0.9,1-0.9l0,0c0.5,0,1,0.4,1,0.9c0.5,5,2.9,10.1,7,14.2c4.1,4.1,9.2,6.5,14.2,7c0.5,0.1,0.9,0.5,0.9,1l0,0
			C136.8,31.5,136.4,31.9,135.9,32z M107.7,61.8v53.9c0,14.1-11.4,25.5-25.5,25.5H28.4c-14.1,0-25.5-11.4-25.5-25.5V61.8
			c0-14.1,11.4-25.5,25.5-25.5h53.8C96.2,36.2,107.7,47.7,107.7,61.8z M53.2,81.5c0-1.9-1.1-3.6-2.8-4.4L28.4,66.3
			c-1-0.5-2.1,0.2-2.1,1.3v2.9c0,0.6,0.3,1.1,0.8,1.3L43.8,80c1.3,0.6,1.3,2.4,0,3l-16.8,8.1c-0.5,0.2-0.8,0.8-0.8,1.3v2.9
			c0,1.1,1.1,1.8,2.1,1.3l22.2-10.8C52.2,85.1,53.2,83.4,53.2,81.5z M84.2,107.2c0-1.1-0.9-2-2-2H59.2c-1.1,0-2,0.9-2,2v2.1
			c0,1.1,0.9,2,2,2h23.1c1.1,0,2-0.9,2-2V107.2z"/>
	</g>
</g>
</svg>
