<?xml version="1.0" encoding="utf-8"?>
<!-- Generator: Adobe Illustrator 28.2.0, SVG Export Plug-In . SVG Version: 6.00 Build 0)  -->
<svg version="1.1" id="Layer_1" xmlns="http://www.w3.org/2000/svg" xmlns:xlink="http://www.w3.org/1999/xlink" x="0px" y="0px"
	 viewBox="0 0 546 149" style="enable-background:new 0 0 546 149;" xml:space="preserve">
<style type="text/css">
	.st0{enable-background:new    ;}
	.st1{fill:#FFFFFF;}
	.st2{fill:url(#SVGID_1_);}
</style>
<g>
	<g class="st0">
		<path class="st1" d="M145.8,94.5v6.1h-2.9v22.8h2.9v6.1H132v-6.1h2.9v-22.8H132v-6.1L145.8,94.5L145.8,94.5z"/>
		<path class="st1" d="M189.8,129.5h-7.7v-14.3c0-3.6-1.3-5.4-4-5.4c-1.3,0-2.3,0.5-3.1,1.6s-1.2,2.5-1.2,4.1v14h-7.7v-14.4
			c0-3.5-1.3-5.3-3.9-5.3c-1.3,0-2.4,0.5-3.2,1.6c-0.8,1-1.2,2.5-1.2,4.2v13.9h-7.7v-25h7.7v3.9h0.1c0.8-1.3,1.9-2.4,3.4-3.3
			c1.4-0.8,3-1.3,4.7-1.3c3.5,0,5.9,1.6,7.3,4.7c1.9-3.1,4.7-4.7,8.4-4.7c5.4,0,8.2,3.4,8.2,10.1v15.6H189.8z"/>
		<path class="st1" d="M216.7,129.5h-7.3v-3.6h-0.1c-1.7,2.8-4.2,4.2-7.4,4.2c-2.4,0-4.3-0.7-5.7-2.1c-1.4-1.4-2.1-3.2-2.1-5.5
			c0-4.8,2.9-7.6,8.6-8.4l6.8-0.9c0-2.7-1.5-4.1-4.4-4.1c-3,0-5.8,0.9-8.5,2.7V106c1.1-0.6,2.5-1,4.4-1.5c1.9-0.4,3.6-0.6,5.1-0.6
			c7.1,0,10.7,3.6,10.7,10.7v14.9H216.7z M209.4,119.3v-1.7l-4.5,0.6c-2.5,0.3-3.8,1.5-3.8,3.4c0,0.9,0.3,1.6,0.9,2.2
			c0.6,0.6,1.4,0.8,2.5,0.8c1.4,0,2.6-0.5,3.5-1.5C209,122.1,209.4,120.8,209.4,119.3z"/>
		<path class="st1" d="M247.3,126.6c0,4.6-1.3,8.2-4,10.8c-2.7,2.5-6.6,3.8-11.7,3.8c-3.4,0-6-0.5-8-1.4v-6.5
			c2.6,1.5,5.2,2.2,7.8,2.2s4.6-0.7,6.1-2.1c1.4-1.4,2.1-3.2,2.1-5.6v-2h-0.1c-1.8,2.8-4.4,4.2-7.8,4.2c-3.2,0-5.7-1.1-7.6-3.4
			c-1.9-2.2-2.8-5.3-2.8-9c0-4.2,1-7.6,3.1-10.1s4.8-3.7,8.2-3.7c3,0,5.3,1.2,6.8,3.5h0.1v-2.9h7.7L247.3,126.6L247.3,126.6z
			 M239.7,117.5v-2c0-1.6-0.5-2.9-1.4-4s-2.2-1.7-3.6-1.7c-1.7,0-3.1,0.7-4,2c-1,1.3-1.5,3.2-1.5,5.6c0,2.1,0.5,3.7,1.4,4.9
			c0.9,1.2,2.2,1.8,3.8,1.8s2.9-0.6,3.9-1.8C239.2,121.1,239.7,119.5,239.7,117.5z"/>
		<path class="st1" d="M276.2,119.2h-16.3c0.3,3.6,2.5,5.4,6.9,5.4c2.8,0,5.2-0.7,7.3-2v5.6c-2.3,1.2-5.3,1.9-9,1.9
			c-4,0-7.2-1.1-9.4-3.4c-2.2-2.2-3.3-5.4-3.3-9.4c0-4.2,1.2-7.4,3.6-9.9c2.4-2.4,5.4-3.6,8.9-3.6c3.6,0,6.5,1.1,8.5,3.2
			c2,2.2,3,5.1,3,8.8v3.4H276.2z M269,114.4c0-3.6-1.4-5.4-4.3-5.4c-1.2,0-2.3,0.5-3.2,1.5s-1.5,2.3-1.6,3.8L269,114.4L269,114.4z"
			/>
		<path class="st1" d="M279.1,128.8v-6.2c1.3,0.8,2.5,1.3,3.8,1.7c1.3,0.4,2.5,0.6,3.6,0.6c1.4,0,2.4-0.2,3.2-0.6
			c0.8-0.4,1.2-0.9,1.2-1.7c0-0.5-0.2-0.9-0.5-1.2c-0.4-0.3-0.8-0.6-1.4-0.9s-1.2-0.5-1.8-0.7c-0.7-0.2-1.3-0.4-1.9-0.7
			c-1-0.4-1.9-0.8-2.6-1.2c-0.8-0.4-1.4-0.9-1.9-1.5s-0.9-1.2-1.2-2c-0.3-0.7-0.4-1.6-0.4-2.7c0-1.4,0.3-2.6,0.9-3.6
			s1.4-1.8,2.4-2.5c1-0.6,2.2-1.1,3.5-1.4s2.7-0.5,4.1-0.5c1.1,0,2.2,0.1,3.4,0.3c1.1,0.2,2.3,0.4,3.4,0.7v6c-1-0.6-2-1-3.1-1.3
			s-2.2-0.4-3.3-0.4c-0.5,0-1,0-1.4,0.1s-0.8,0.2-1.2,0.4c-0.3,0.2-0.6,0.4-0.8,0.7c-0.2,0.3-0.3,0.6-0.3,0.9c0,0.5,0.1,0.8,0.4,1.2
			c0.3,0.3,0.7,0.6,1.1,0.8c0.5,0.2,1,0.4,1.6,0.6s1.2,0.4,1.7,0.6c1,0.4,2,0.7,2.8,1.2c0.8,0.4,1.5,0.9,2.1,1.5s1,1.2,1.4,2
			c0.3,0.8,0.5,1.7,0.5,2.7c0,1.5-0.3,2.7-1,3.8c-0.6,1.1-1.5,1.9-2.6,2.6s-2.3,1.1-3.7,1.4c-1.4,0.3-2.8,0.5-4.3,0.5
			C284,130.1,281.5,129.7,279.1,128.8z"/>
		<path class="st1" d="M335.6,130c-0.9,0-1.7-0.1-2.5-0.3s-1.5-0.5-2.2-0.9s-1.3-0.9-2-1.4c-0.6-0.5-1.2-1.1-1.8-1.7
			c-0.6,0.5-1.3,1-2.2,1.5c-0.8,0.5-1.8,1-2.9,1.4s-2.2,0.8-3.5,1c-1.3,0.3-2.7,0.4-4.1,0.4c-1.9,0-3.7-0.2-5.3-0.7s-3-1.1-4.2-2
			s-2.1-2-2.7-3.4c-0.7-1.3-1-2.9-1-4.6c0-1.4,0.2-2.6,0.7-3.7s1.1-2,1.9-2.8s1.7-1.5,2.7-2.1s2-1.1,3.1-1.5c-0.5-0.4-1-0.8-1.5-1.4
			c-0.5-0.5-1-1.1-1.4-1.7s-0.7-1.3-1-2s-0.4-1.5-0.4-2.3c0-1.3,0.3-2.4,0.8-3.4s1.2-1.8,2.2-2.5c0.9-0.7,2.1-1.2,3.4-1.6
			s2.7-0.5,4.3-0.5c1.5,0,2.9,0.2,4.1,0.6s2.3,0.9,3.2,1.6c0.9,0.7,1.6,1.5,2.1,2.4s0.7,2,0.7,3.1c0,1.8-0.5,3.4-1.6,4.7
			c-1.1,1.3-2.6,2.4-4.6,3.2c0.8,0.4,1.5,0.8,2.2,1.2c0.7,0.5,1.4,1,2.1,1.6s1.3,1.2,2,2c0.7,0.7,1.3,1.6,1.9,2.6
			c1.3-1.7,2.3-3.5,2.9-5.4s0.9-3.9,0.9-5.9c0-0.6,0-1.2-0.1-1.8c-0.1-0.6-0.2-1.1-0.4-1.6h6.6c0.2,0.5,0.3,1,0.4,1.5
			s0.1,1.1,0.1,1.7c0,1.6-0.2,3.1-0.5,4.6s-0.8,2.9-1.4,4.3s-1.3,2.7-2.2,3.9s-1.8,2.4-2.8,3.4c0.8,0.8,1.6,1.5,2.5,1.9
			c0.8,0.4,1.6,0.7,2.4,0.7s1.6-0.1,2.4-0.3c0.8-0.2,1.5-0.4,2.1-0.7v5.8c-0.9,0.4-1.8,0.6-2.6,0.8C337.7,129.9,336.7,130,335.6,130
			z M315,124.2c1,0,1.9-0.1,2.7-0.3c0.8-0.2,1.6-0.4,2.4-0.7c0.7-0.3,1.4-0.7,2.1-1.1c0.6-0.4,1.2-0.8,1.8-1.3
			c-0.8-1.3-1.7-2.4-2.5-3.3s-1.6-1.7-2.4-2.3c-0.8-0.6-1.6-1.2-2.4-1.6s-1.6-0.8-2.4-1.2c-0.7,0.3-1.3,0.7-1.9,1.1
			s-1.2,0.9-1.6,1.4c-0.5,0.5-0.9,1.1-1.1,1.8c-0.3,0.7-0.4,1.5-0.4,2.3s0.1,1.5,0.4,2.1s0.7,1.2,1.2,1.6c0.5,0.5,1.1,0.8,1.8,1.1
			C313.3,124.1,314.1,124.2,315,124.2z M319.5,102c0-0.5-0.1-0.9-0.3-1.3c-0.2-0.4-0.4-0.7-0.7-0.9c-0.3-0.3-0.7-0.4-1-0.6
			c-0.4-0.1-0.8-0.2-1.2-0.2c-0.5,0-1,0.1-1.5,0.2c-0.4,0.2-0.8,0.4-1.2,0.7c-0.3,0.3-0.6,0.6-0.8,1c-0.2,0.4-0.3,0.8-0.3,1.2
			c0,0.9,0.3,1.8,0.9,2.5c0.6,0.8,1.3,1.4,2.1,1.9c0.5-0.2,1-0.4,1.5-0.7c0.5-0.3,0.9-0.6,1.3-0.9c0.4-0.4,0.7-0.8,0.9-1.2
			C319.4,103.2,319.5,102.6,319.5,102z"/>
		<path class="st1" d="M353.9,117.4v12.1H346v-35h12.4c8.8,0,13.2,3.7,13.2,11.2c0,3.5-1.3,6.4-3.8,8.5c-2.5,2.2-5.9,3.3-10.1,3.3
			h-3.8V117.4z M353.9,100.5v10.9h3.1c4.2,0,6.3-1.8,6.3-5.5c0-3.6-2.1-5.4-6.3-5.4H353.9z"/>
		<path class="st1" d="M392.3,111.4c-0.9-0.5-2-0.8-3.2-0.8c-1.7,0-3,0.6-3.9,1.8c-0.9,1.2-1.4,2.9-1.4,5v11.9H376v-25h7.7v4.6h0.1
			c1.2-3.4,3.4-5.1,6.6-5.1c0.8,0,1.4,0.1,1.9,0.3L392.3,111.4L392.3,111.4z"/>
		<path class="st1" d="M407.8,130.1c-4.2,0-7.4-1.2-9.8-3.5s-3.6-5.5-3.6-9.5c0-4.1,1.2-7.4,3.7-9.7c2.5-2.3,5.8-3.5,10-3.5
			s7.4,1.2,9.8,3.5s3.5,5.4,3.5,9.3c0,4.2-1.2,7.4-3.7,9.8C415.3,128.9,412,130.1,407.8,130.1z M408,109.8c-1.8,0-3.2,0.6-4.2,1.9
			s-1.5,3-1.5,5.3c0,4.8,1.9,7.2,5.8,7.2c3.7,0,5.5-2.5,5.5-7.4C413.6,112.1,411.7,109.8,408,109.8z"/>
		<path class="st1" d="M466.1,129.5h-7.7v-14.3c0-3.6-1.3-5.4-4-5.4c-1.3,0-2.3,0.5-3.1,1.6c-0.8,1.1-1.2,2.5-1.2,4.1v14h-7.7v-14.4
			c0-3.5-1.3-5.3-3.9-5.3c-1.3,0-2.4,0.5-3.2,1.6c-0.8,1-1.2,2.5-1.2,4.2v13.9h-7.7v-25h7.7v3.9h0.1c0.8-1.3,1.9-2.4,3.4-3.3
			c1.4-0.8,3-1.3,4.7-1.3c3.5,0,5.9,1.6,7.2,4.7c1.9-3.1,4.7-4.7,8.4-4.7c5.4,0,8.2,3.4,8.2,10.1L466.1,129.5L466.1,129.5z"/>
		<path class="st1" d="M480,126.6L480,126.6l-0.1,14.4h-7.7v-36.5h7.7v3.8h0.1c1.9-2.9,4.6-4.4,8-4.4c3.2,0,5.7,1.1,7.5,3.3
			c1.8,2.2,2.6,5.2,2.6,9.1c0,4.2-1,7.5-3.1,10s-4.8,3.8-8.2,3.8C483.9,130.1,481.6,128.9,480,126.6z M479.8,116.3v2
			c0,1.7,0.5,3.1,1.4,4.2s2.1,1.6,3.6,1.6c1.8,0,3.1-0.7,4.1-2c1-1.4,1.5-3.3,1.5-5.8c0-4.4-1.7-6.6-5.1-6.6c-1.6,0-2.9,0.6-3.9,1.8
			C480.3,112.8,479.8,114.3,479.8,116.3z"/>
		<path class="st1" d="M518.3,129.2c-1.1,0.6-2.9,0.9-5.2,0.9c-5.4,0-8.2-2.8-8.2-8.5v-11.5H501v-5.7h4.1v-5.3l7.7-2.2v7.6h5.6v5.7
			h-5.6v10.1c0,2.6,1,3.9,3.1,3.9c0.8,0,1.7-0.2,2.5-0.7L518.3,129.2L518.3,129.2z"/>
		<path class="st1" d="M521.1,128.8v-6.2c1.3,0.8,2.5,1.3,3.8,1.7c1.3,0.4,2.5,0.6,3.6,0.6c1.4,0,2.4-0.2,3.2-0.6s1.2-0.9,1.2-1.7
			c0-0.5-0.2-0.9-0.5-1.2c-0.4-0.3-0.8-0.6-1.4-0.9s-1.2-0.5-1.8-0.7c-0.7-0.2-1.3-0.4-1.9-0.7c-1-0.4-1.9-0.8-2.6-1.2
			c-0.8-0.4-1.4-0.9-1.9-1.5s-0.9-1.2-1.2-2c-0.3-0.7-0.4-1.6-0.4-2.7c0-1.4,0.3-2.6,0.9-3.6c0.6-1,1.4-1.8,2.4-2.5
			c1-0.6,2.2-1.1,3.5-1.4s2.7-0.5,4.1-0.5c1.1,0,2.2,0.1,3.4,0.3c1.1,0.2,2.3,0.4,3.4,0.7v6c-1-0.6-2-1-3.1-1.3s-2.2-0.4-3.3-0.4
			c-0.5,0-1,0-1.4,0.1s-0.8,0.2-1.2,0.4c-0.3,0.2-0.6,0.4-0.8,0.7c-0.2,0.3-0.3,0.6-0.3,0.9c0,0.5,0.1,0.8,0.4,1.2
			c0.3,0.3,0.7,0.6,1.1,0.8c0.5,0.2,1,0.4,1.6,0.6s1.2,0.4,1.7,0.6c1,0.4,2,0.7,2.8,1.2c0.8,0.4,1.5,0.9,2.1,1.5s1,1.2,1.4,2
			c0.3,0.8,0.5,1.7,0.5,2.7c0,1.5-0.3,2.7-1,3.8c-0.6,1.1-1.5,1.9-2.6,2.6s-2.3,1.1-3.7,1.4c-1.4,0.3-2.8,0.5-4.3,0.5
			C525.9,130.1,523.4,129.7,521.1,128.8z"/>
	</g>
	<g>
		<linearGradient id="SVGID_1_" gradientUnits="userSpaceOnUse" x1="107.8416" y1="2.5777" x2="26.9358" y2="142.7107">
			<stop  offset="0" style="stop-color:#326BC6"/>
			<stop  offset="0.3" style="stop-color:#7EC4FC"/>
			<stop  offset="0.7" style="stop-color:#D2C7F3"/>
			<stop  offset="1" style="stop-color:#FAA2BE"/>
		</linearGradient>
		<path class="st2" d="M138.8,32c-5,0.5-10.1,2.9-14.2,7c-4.1,4.1-6.5,9.2-7,14.2c-0.1,0.5-0.5,0.9-1,0.9l0,0c-0.5,0-1-0.4-1-0.9
			c-0.5-5-2.9-10.1-7-14.2c-4.1-4.1-9.2-6.5-14.2-7c-0.5-0.1-0.9-0.5-0.9-1v0c0-0.5,0.4-1,0.9-1c5-0.5,10.1-2.9,14.2-7
			c4.1-4.1,6.5-9.2,7-14.2c0.1-0.5,0.5-0.9,1-0.9h0c0.5,0,1,0.4,1,0.9c0.5,5,2.9,10.1,7,14.2c4.1,4.1,9.2,6.5,14.2,7
			c0.5,0.1,0.9,0.5,0.9,1v0C139.7,31.5,139.3,31.9,138.8,32z M110.5,61.8v53.9c0,14.1-11.4,25.5-25.5,25.5H31.2
			c-14.1,0-25.5-11.4-25.5-25.5V61.8c0-14.1,11.4-25.5,25.5-25.5H85C99.1,36.3,110.5,47.7,110.5,61.8z M56.1,81.5
			c0-1.9-1.1-3.6-2.8-4.4L31.2,66.3c-1-0.5-2.1,0.2-2.1,1.3v2.9c0,0.6,0.3,1.1,0.8,1.3L46.7,80c1.3,0.6,1.3,2.4,0,3l-16.8,8.1
			c-0.5,0.2-0.8,0.8-0.8,1.3v2.9c0,1.1,1.1,1.8,2.1,1.3l22.2-10.8C55.1,85.1,56.1,83.4,56.1,81.5z M87.1,107.2c0-1.1-0.9-2-2-2H62
			c-1.1,0-2,0.9-2,2v2.1c0,1.1,0.9,2,2,2h23.1c1.1,0,2-0.9,2-2V107.2z"/>
	</g>
</g>
</svg>
