<?xml version="1.0" encoding="UTF-8"?>
<svg id="Layer_1" data-name="Layer 1" xmlns="http://www.w3.org/2000/svg" xmlns:xlink="http://www.w3.org/1999/xlink" viewBox="0 0 246.29 246.29">
  <defs>
    <style>
      .cls-1 {
        fill: url(#linear-gradient);
        stroke-width: 0px;
      }

      .cls-2 {
        fill: #fff;
        font-family: MicrosoftNewTaiLue-Bold, 'Microsoft New Tai Lue';
        font-size: 39.05px;
        font-weight: 700;
      }
    </style>
    <linearGradient id="linear-gradient" x1="173.01" y1=".11" x2="92.1" y2="140.25" gradientUnits="userSpaceOnUse">
      <stop offset="0" stop-color="#326bc6"/>
      <stop offset=".3" stop-color="#7ec4fc"/>
      <stop offset=".7" stop-color="#d2c7f3"/>
      <stop offset="1" stop-color="#faa2be"/>
    </linearGradient>
  </defs>
  <text class="cls-2" transform="translate(40.74 179.22)"><tspan x="0" y="0">Images&amp;</tspan><tspan x="4.53" y="46.85">Prompts</tspan></text>
  <path class="cls-1" d="M203.99,29.5c-4.98.52-10.08,2.87-14.19,6.98s-6.47,9.22-6.98,14.19c-.05.53-.5.92-1.03.92h0c-.53,0-.97-.4-1.03-.92-.52-4.98-2.87-10.08-6.98-14.19s-9.22-6.47-14.19-6.98c-.53-.05-.92-.5-.92-1.03h0c0-.53.4-.97.92-1.03,4.98-.52,10.08-2.87,14.19-6.98,4.11-4.11,6.47-9.22,6.98-14.19.05-.53.5-.92,1.03-.92h0c.53,0,.97.4,1.03.92.52,4.98,2.87,10.08,6.98,14.19s9.22,6.47,14.19,6.98c.53.05.92.5.92,1.03h0c0,.53-.4.97-.92,1.03ZM175.69,59.36v53.87c0,14.08-11.42,25.5-25.5,25.5h-53.87c-14.08,0-25.5-11.42-25.5-25.5v-53.87c0-14.08,11.42-25.5,25.5-25.5h53.87c14.08,0,25.5,11.42,25.5,25.5ZM121.29,79.05c0-1.87-1.07-3.58-2.76-4.4l-22.21-10.76c-.97-.47-2.1.24-2.1,1.32v2.88c0,.56.32,1.07.83,1.32l16.78,8.13c1.27.62,1.27,2.43,0,3.04l-16.78,8.13c-.51.24-.83.76-.83,1.32v2.88c0,1.08,1.13,1.79,2.1,1.32l22.21-10.76c1.69-.82,2.76-2.53,2.76-4.4ZM152.29,104.72c0-1.11-.9-2-2-2h-23.07c-1.11,0-2,.9-2,2v2.12c0,1.11.9,2,2,2h23.07c1.11,0,2-.9,2-2v-2.12Z"/>
</svg>